<svg width="31" height="37" viewBox="0 0 31 37" fill="none" xmlns="http://www.w3.org/2000/svg">
<path d="M30.9631 11.8097C30.9631 11.3042 30.742 10.9153 30.3365 10.6431C30.2628 10.6042 30.1522 10.5264 30.0785 10.4875C30.0785 9.20417 30.0416 7.88194 29.9679 6.55972C29.8205 3.52639 28.3092 2.04861 25.4709 2.00972C23.0012 2.00972 20.5315 2.00972 18.0618 2.00972C14.044 2.00972 10.063 1.97083 6.04518 2.04861C2.3591 2.12639 0.884661 3.75972 0.884661 7.64861C0.884661 8.58194 0.884661 9.51528 0.884661 10.4875C0.663496 10.5653 0.479191 10.7597 0.331748 10.9542C0.0737216 11.1875 0 11.5375 0 11.9264C0 13.7153 0 15.5042 0 17.3319C0 17.8764 0.184304 18.3042 0.626635 18.5764C0.737218 18.6542 0.810939 18.6931 0.921522 18.7319C0.921522 22.5819 0.921522 26.3931 0.921522 30.2431C0.921522 30.7875 0.8478 31.4097 1.10583 31.8764C1.65874 32.8097 1.54816 33.8208 1.58502 34.8319C1.62188 36.0764 2.39596 36.9319 3.57551 36.9708C4.42331 37.0097 5.27111 37.0097 6.11891 36.9708C7.33532 36.9319 8.10939 36.1931 8.14625 34.9097C8.18312 34.3653 8.25684 34.1708 8.84661 34.1708C13.2699 34.2097 17.7301 34.2097 22.1534 34.1708C22.7063 34.1708 22.8537 34.3264 22.8537 34.9097C22.8906 36.2708 23.6647 36.9708 24.9548 36.9708C25.692 36.9708 26.4293 36.9708 27.1665 36.9708C28.6778 36.9708 29.415 36.1542 29.4518 34.5597C29.4518 33.9375 29.2675 33.2375 29.5993 32.6542C30.0048 31.8764 30.1153 31.0986 30.1153 30.2431C30.1153 26.6264 30.1153 23.0097 30.1153 18.7319C30.3734 18.6931 30.5945 18.4597 30.742 18.2264C30.9263 17.9931 31 17.6819 31 17.3708C30.9631 15.5431 30.9631 13.6764 30.9631 11.8097ZM9.3258 4.80972C11.5375 4.80972 13.7491 4.80972 15.9239 4.80972C18.0618 4.80972 20.1998 4.80972 22.3746 4.80972C23.3329 4.80972 23.4435 4.96528 23.4804 6.13194C23.4804 7.41528 23.3698 7.60972 22.4483 7.60972C18.0618 7.60972 13.6754 7.60972 9.3258 7.60972C8.36742 7.60972 8.18312 7.37639 8.18312 6.20972C8.14625 5.04306 8.33056 4.80972 9.3258 4.80972ZM6.56124 30.7097C5.27111 30.7097 4.20214 29.5819 4.20214 28.2208C4.239 26.8986 5.30797 25.8097 6.52438 25.8097C7.81451 25.8097 8.77289 26.8597 8.77289 28.2597C8.80975 29.6208 7.81451 30.7097 6.56124 30.7097ZM6.22949 22.3097C4.82878 22.3097 4.20214 21.6097 4.20214 20.0931C4.20214 17.3708 4.20214 14.6486 4.20214 11.9264C4.20214 10.4097 4.79191 9.7875 6.22949 9.7875C9.3258 9.7875 12.3853 9.7875 15.4816 9.7875C18.5042 9.7875 21.5268 9.7875 24.5493 9.7875C26.1712 9.7875 26.7241 10.3708 26.7241 12.0431C26.7241 14.6486 26.7241 17.2542 26.7241 19.8597C26.7241 21.4153 25.9132 22.2708 24.4388 22.3097C18.3936 22.3097 12.3115 22.3097 6.22949 22.3097ZM24.4388 30.7097C23.1855 30.7097 22.1902 29.6597 22.1534 28.2986C22.1534 26.8986 23.1118 25.8486 24.4019 25.8486C25.692 25.8486 26.761 26.9764 26.761 28.3375C26.7241 29.5819 25.692 30.7097 24.4388 30.7097Z" fill="#293462"/>
</svg>
