<svg width="32" height="26" viewBox="0 0 32 26" fill="none" xmlns="http://www.w3.org/2000/svg">
<path fill-rule="evenodd" clip-rule="evenodd" d="M3.25976 9.06472L5.48727 3.03967C6.30221 1.46555 7.55178 0.488518 9.01868 0H22.9813C24.4482 0.488518 25.6435 1.46555 26.5127 3.03967L28.7402 9.06472H31.6197C31.837 9.06472 32 9.22756 32 9.44468V10.6388C32 10.8559 31.837 11.0731 31.6197 11.0731H29.9355C30.4244 11.6701 30.9134 12.3758 31.4024 13.2985C31.4024 16.9353 31.4567 20.572 31.4567 24.263C31.4567 25.1858 30.6961 26 29.7182 26H28.5229C27.545 26 26.7844 25.1858 26.7844 24.263V22.0376H5.21562V24.263C5.21562 25.1858 4.45501 26 3.47708 26H2.28183C1.30391 26 0.543294 25.1858 0.543294 24.263C0.543294 20.572 0.597623 16.9353 0.597623 13.2985C1.08659 12.3758 1.57555 11.6701 2.06452 11.0731H0.380306C0.162988 11.0731 0 10.8559 0 10.6388V9.44468C0 9.22756 0.162988 9.06472 0.380306 9.06472H3.25976ZM9.29032 2.38831C8.36672 2.55115 7.7691 3.14823 7.44312 3.90814C6.79117 5.69937 6.08489 7.762 5.48727 9.55324H26.5127C25.9151 7.762 25.1545 5.69937 24.5569 3.90814C24.1766 3.14823 23.6333 2.55115 22.7097 2.38831H9.29032ZM25.9151 13.4614C24.8285 13.4614 23.9593 14.3299 23.9593 15.4154C23.9593 16.501 24.8285 17.3695 25.9151 17.3695C26.9474 17.3695 27.8166 16.501 27.8166 15.4154C27.8166 14.3299 26.9474 13.4614 25.9151 13.4614ZM6.08489 13.4614C7.17148 13.4614 8.04075 14.3299 8.04075 15.4154C8.04075 16.501 7.17148 17.3695 6.08489 17.3695C5.05263 17.3695 4.18336 16.501 4.18336 15.4154C4.18336 14.3299 5.05263 13.4614 6.08489 13.4614Z" fill="#293462"/>
</svg>
