<svg width="38" height="37" viewBox="0 0 38 37" fill="none" xmlns="http://www.w3.org/2000/svg">
<path d="M37.6097 0.379158C36.1923 -0.999494 30.5632 1.68856 28.6772 3.52677L23.7996 8.27651L2.60682 4.63472C2.4452 4.60639 2.27874 4.65676 2.16238 4.77007L0.148635 6.7326C0.0338872 6.84434 -0.0194463 7.0033 0.0064123 7.15911C0.0322709 7.31491 0.132473 7.44869 0.277928 7.51951L16.863 15.5947L9.83916 24.3466L3.61369 23.2764C3.45046 23.2512 3.28561 23.2985 3.16925 23.4118L1.65813 24.8833C1.54662 24.9919 1.49167 25.1477 1.51429 25.3003C1.54015 25.4562 1.63389 25.5899 1.7745 25.6607L6.90097 28.3488L5.59188 30.8968C5.49491 31.0856 5.5337 31.3138 5.68723 31.4618C5.78582 31.5562 5.91349 31.6034 6.0444 31.6034C6.12036 31.6034 6.19794 31.5877 6.26905 31.5531L8.88562 30.2783L11.646 35.2704C11.722 35.4057 11.8594 35.5002 12.0161 35.5253C12.0404 35.5285 12.063 35.5285 12.0889 35.5285C12.2214 35.5285 12.3491 35.4797 12.446 35.3869L13.9571 33.9138C14.0735 33.8005 14.1252 33.6399 14.0978 33.4841L12.9988 27.4187L21.9863 20.5789L30.2788 36.7293C30.3515 36.8709 30.4905 36.9685 30.6489 36.9937C30.6764 36.9984 30.7022 37 30.7329 37C30.8655 37 30.9899 36.9496 31.0869 36.8568L33.1038 34.8942C33.217 34.7809 33.2719 34.6204 33.2428 34.4615L29.503 13.8242L34.3806 9.07442C36.2683 7.2378 39.0271 1.75938 37.6097 0.379158Z" fill="#293462"/>
</svg>
