<svg width="41" height="41" viewBox="0 0 41 41" fill="none" xmlns="http://www.w3.org/2000/svg">
<path d="M27.1202 28.2762C27.4655 28.6216 27.6626 29.0898 27.6626 29.583C27.6626 30.0512 27.4655 30.5444 27.1202 30.8897C26.7749 31.235 26.3066 31.4321 25.8135 31.4321C25.3204 31.4321 24.8521 31.235 24.5068 30.8897C24.1614 30.5444 23.9644 30.0517 23.9644 29.583C23.9644 29.0898 24.1614 28.6216 24.5068 28.2762C24.8521 27.9309 25.3204 27.7338 25.8135 27.7338C26.3066 27.7338 26.7749 27.9313 27.1202 28.2762Z" fill="#293462"/>
<path d="M16.1483 28.2762C16.4936 28.6216 16.6907 29.0898 16.6907 29.583C16.6907 30.0512 16.4936 30.5444 16.1483 30.8897C15.803 31.235 15.3347 31.4321 14.8416 31.4321C14.3733 31.4321 13.8802 31.235 13.5348 30.8897C13.1895 30.5444 12.9924 30.0517 12.9924 29.583C12.9924 29.0898 13.1895 28.6216 13.5348 28.2762C13.8802 27.9309 14.3733 27.7338 14.8416 27.7338C15.3347 27.7338 15.8034 27.9313 16.1483 28.2762Z" fill="#293462"/>
<path d="M27.6621 17.6267V23.8882C27.6621 25.5154 26.3309 26.871 24.6789 26.871H15.9756C14.3484 26.871 12.9924 25.515 12.9924 23.8882V17.6267C12.9924 15.9751 14.3484 14.6439 15.9756 14.6439H24.6789C26.3309 14.6435 27.6621 15.9746 27.6621 17.6267ZM23.9638 23.1732V18.3413H16.6907V23.1732H23.9638Z" fill="#293462"/>
<path d="M32.5189 24.5784V29.7059C32.5189 30.8399 32.2228 31.9492 31.7302 32.8861C31.4097 33.453 31.0151 33.9953 30.5712 34.4392C30.2508 34.7597 29.9054 35.0309 29.5357 35.2772L31.7053 37.5454C32.4204 38.2848 32.3955 39.4438 31.656 40.1584C30.941 40.8734 29.7576 40.8486 29.0426 40.1091L25.4926 36.4117H15.187L11.6121 40.1095C10.8971 40.849 9.73858 40.8739 8.99866 40.1588C8.25919 39.4438 8.23433 38.2853 8.94939 37.5458L11.119 35.2777C10.2313 34.6611 9.46693 33.8724 8.94939 32.911C8.43185 31.9496 8.13579 30.8648 8.13579 29.7063V24.5784V14.5942C8.11093 12.745 8.94939 11.069 10.2561 10.0828C11.5629 9.04724 13.1901 8.62823 14.8417 8.62823H23.1747H25.8126C27.4891 8.62823 29.0918 9.04724 30.3981 10.0828C31.7049 11.069 32.5429 12.745 32.5185 14.5942V24.5784H32.5189ZM28.8211 29.7063V14.5942C28.7962 13.7313 28.5748 13.3616 28.106 12.967C27.6622 12.6221 26.8486 12.326 25.813 12.326H14.8417C13.831 12.326 13.0174 12.6216 12.5487 12.9918C12.1048 13.3616 11.8585 13.7562 11.8336 14.5942V29.7063C11.8336 31.3579 13.1896 32.7139 14.8417 32.7139H25.813C27.4895 32.7139 28.8211 31.3579 28.8211 29.7063Z" fill="#293462"/>
<path d="M34.7628 6.36054C38.4118 10.2554 40.68 15.6541 40.68 21.5708C40.68 26.9694 38.7816 31.9247 35.675 35.7211C35.0092 36.5098 33.8507 36.6332 33.0615 35.9923C32.2728 35.3265 32.1494 34.168 32.8152 33.3793C35.4038 30.2238 36.9817 26.1066 36.9817 21.5708C36.9817 16.5911 35.0833 12.1041 32.0508 8.87456C29.0184 5.66988 24.9011 3.69781 20.34 3.69781C15.7789 3.69781 11.6367 5.66988 8.60426 8.87501C5.5718 12.1045 3.69781 16.5911 3.69781 21.5712C3.69781 26.1075 5.25088 30.2243 7.86434 33.3797C8.50528 34.1684 8.38188 35.3274 7.59314 35.9927C6.8044 36.6336 5.64548 36.5103 5.00454 35.7215C1.87354 31.9247 0 26.9699 0 21.5708C0 15.6541 2.24373 10.2554 5.91713 6.36008C9.56612 2.4408 14.6941 0 20.34 0C25.9859 0 31.0894 2.4408 34.7628 6.36054Z" fill="#293462"/>
</svg>
