<svg width="28" height="39" viewBox="0 0 28 39" fill="none" xmlns="http://www.w3.org/2000/svg">
<path d="M28 30.4969V3.39308C28 1.51258 26.492 0 24.6172 0H3.38282C1.50801 0 0 1.51258 0 3.39308V30.4969C0 32.3774 1.50801 33.8899 3.38282 33.8899H6.31732L0.733624 39H6.48035L12.064 33.9308H15.8952L21.4789 39H27.2256L21.6827 33.8899H24.6172C26.492 33.8899 28 32.3774 28 30.4969ZM8.92577 3.63836H19.0742C19.6041 3.63836 20.0524 4.08805 20.0524 4.6195C20.0524 5.15094 19.6041 5.60063 19.0742 5.60063H8.92577C8.39593 5.60063 7.9476 5.15094 7.9476 4.6195C7.9476 4.08805 8.39593 3.63836 8.92577 3.63836ZM5.54294 30.0063C4.19796 30.0063 3.13828 28.9025 3.13828 27.5943C3.13828 26.2862 4.23872 25.1824 5.54294 25.1824C6.84716 25.1824 7.9476 26.2862 7.9476 27.5943C7.9476 28.9025 6.88792 30.0063 5.54294 30.0063ZM4.60553 16.9654V8.70755H23.4352V16.9245H4.60553V16.9654ZM20.5007 27.5943C20.5007 26.2453 21.6012 25.1824 22.9054 25.1824C24.2096 25.1824 25.31 26.2862 25.31 27.5943C25.31 28.9025 24.2096 30.0063 22.9054 30.0063C21.6012 30.0063 20.5007 28.9434 20.5007 27.5943Z" fill="#293462"/>
</svg>
