<svg width="22" height="37" viewBox="0 0 22 37" fill="none" xmlns="http://www.w3.org/2000/svg">
<g clip-path="url(#clip0)">
<path d="M13.6354 37.0293C14.2953 37.0293 14.8424 36.5183 14.8875 35.86L16.416 13.5071C16.45 13.0107 17.1197 12.8803 17.3375 13.3277L18.0597 14.8115C18.5213 15.76 18.5615 16.8592 18.1702 17.8389L17.0759 20.5794C16.7581 21.3751 17.3442 22.2402 18.2009 22.2402H18.2009C18.653 22.2402 19.0674 21.9885 19.2759 21.5873L21.2618 17.7656C21.7468 16.8324 21.8169 15.7382 21.4551 14.7507L20.6157 12.46C19.9145 10.546 18.0929 9.27344 16.0545 9.27344H6.50347C4.46508 9.27344 2.64348 10.546 1.94219 12.46L1.10286 14.7507C0.741025 15.7382 0.811158 16.8324 1.29611 17.7656L3.28204 21.5873C3.49049 21.9885 3.90495 22.2402 4.35702 22.2402H4.35702C5.21379 22.2402 5.79982 21.3751 5.48208 20.5794L4.38769 17.8389C3.99646 16.8592 4.03662 15.76 4.49827 14.8115L5.22044 13.3277C5.43821 12.8803 6.10794 13.0107 6.14189 13.5071L7.67049 35.86C7.7155 36.5183 8.26265 37.0293 8.9225 37.0293H13.6354Z" fill="#293462"/>
<path d="M11.2834 8.73481C13.5242 8.73481 15.3408 6.91828 15.3408 4.67746C15.3408 2.43665 13.5242 0.620117 11.2834 0.620117C9.04261 0.620117 7.22607 2.43665 7.22607 4.67746C7.22607 6.91828 9.04261 8.73481 11.2834 8.73481Z" fill="#293462"/>
</g>
<defs>
<clipPath id="clip0">
<rect width="22" height="37" fill="white"/>
</clipPath>
</defs>
</svg>
