<svg width="24" height="37" viewBox="0 0 24 37" fill="none" xmlns="http://www.w3.org/2000/svg">
<g clip-path="url(#clip0)">
<path d="M6.8976 24.8928L10.019 28.0142L7.32149 35.2975C7.01321 36.1067 6.24249 36.6077 5.43323 36.6077C5.20202 36.6077 4.9708 36.5691 4.73959 36.4921C3.69912 36.1067 3.15961 34.9506 3.54497 33.9102L6.8976 24.8928Z" fill="#293462"/>
<path d="M1.07867 16.9159L2.9284 13.3706C3.42936 12.4457 4.16155 11.675 5.04787 11.1355C9.32536 8.59213 9.86486 8.63067 10.4044 8.66921L13.2946 8.86189C14.1809 8.90042 14.7975 9.13164 17.7647 13.4862C17.8803 13.6403 18.0345 13.7559 18.2657 13.7945L21.811 14.334C22.7744 14.4881 23.4295 15.3745 23.2754 16.3379C23.1212 17.3013 22.2349 17.9564 21.2715 17.8022L17.7262 17.2627C16.5701 17.07 15.5296 16.4535 14.8745 15.4901C14.7204 15.2589 14.6048 15.0662 14.4506 14.8735L12.177 22.0797L15.337 25.2397C15.7994 25.7021 16.1848 26.3187 16.416 26.9352L18.8437 34.0259C19.2291 35.0663 18.6511 36.2224 17.6106 36.5692C17.3794 36.6463 17.1867 36.6848 16.9555 36.6848C16.1077 36.6848 15.337 36.1453 15.0287 35.3361L12.6009 28.2455C12.5624 28.1684 12.5238 28.1299 12.4853 28.0528L6.85906 22.388C6.04981 21.5787 5.74152 20.4612 5.97273 19.3822L7.20588 13.9101C7.09028 13.9872 6.97467 14.0642 6.82052 14.1413C6.4737 14.334 6.20395 14.6423 6.01127 14.9891L4.16155 18.5344C3.85326 19.1124 3.23668 19.4593 2.62011 19.4593C2.35036 19.4593 2.08061 19.3822 1.81085 19.2666C0.963063 18.8042 0.654776 17.7637 1.07867 16.9159Z" fill="#293462"/>
<path d="M16.3118 4.33161C16.5444 2.19473 15.0006 0.273901 12.8638 0.0413183C10.7269 -0.191264 8.80605 1.35247 8.57347 3.48935C8.34089 5.62624 9.88463 7.54707 12.0215 7.77965C14.1584 8.01223 16.0792 6.46849 16.3118 4.33161Z" fill="#293462"/>
</g>
<defs>
<clipPath id="clip0">
<rect width="24" height="37" fill="white"/>
</clipPath>
</defs>
</svg>
